<?xml version="1.0" encoding="utf-8"?><svg xmlns="http://www.w3.org/2000/svg" xmlns:xlink="http://www.w3.org/1999/xlink"><symbol viewBox="0 0 40 50" id="arrow_bottom_curve" xmlns="http://www.w3.org/2000/svg"><g opacity=".2"><path d="M25.906 49.919a1.052 1.052 0 01-.343-.227l-12.628-12.5a1.034 1.034 0 01.026-1.473 1.06 1.06 0 011.462 0l10.833 10.723V26.04C25.24 12.815 14.413 2.098 1.052 2.083A1.047 1.047 0 010 1.042C0 .466.471 0 1.052 0 15.575.016 27.344 11.665 27.36 26.04v20.402l10.83-10.72a1.06 1.06 0 011.489-.026 1.034 1.034 0 010 1.498l-12.628 12.5a1.06 1.06 0 01-1.147.227l.002-.002z"/><path d="M39.989 36.457a1.047 1.047 0 00-1.051-1.044c-.28 0-.549.11-.747.306L26.308 47.484 14.425 35.719a1.06 1.06 0 00-1.488.026 1.034 1.034 0 000 1.447l12.628 12.5a1.06 1.06 0 001.488 0l12.628-12.5a1.04 1.04 0 00.308-.735z"/><path d="M27.36 48.956V26.041C27.344 11.665 15.575.016 1.052 0 .472 0 0 .466 0 1.042c0 .575.471 1.041 1.052 1.041 13.361.015 24.189 10.733 24.204 23.958v22.915c0 .576.47 1.042 1.052 1.042.581 0 1.052-.466 1.052-1.042z"/></g></symbol><symbol viewBox="0 0 30 50" id="arrow_right_steps" xmlns="http://www.w3.org/2000/svg"><path d="M28.577 23.049L6.327.799A2.715 2.715 0 004.391 0c-.732 0-1.42.284-1.934.799L.82 2.437a2.739 2.739 0 000 3.868L19.504 24.99.799 43.695A2.717 2.717 0 000 45.629c0 .732.284 1.419.799 1.934l1.638 1.638A2.715 2.715 0 004.372 50c.732 0 1.419-.284 1.934-.799l22.271-22.27c.516-.517.8-1.207.798-1.94a2.718 2.718 0 00-.798-1.942z"/></symbol><symbol viewBox="0 0 12 8" id="arrow_up" xmlns="http://www.w3.org/2000/svg"><path d="M5.532.192l-5.34 5.34A.652.652 0 000 5.997c0 .175.068.34.192.464l.393.393a.657.657 0 00.928 0L5.998 2.37l4.489 4.49a.652.652 0 00.464.19c.176 0 .34-.067.464-.19l.393-.394A.652.652 0 0012 6.002a.652.652 0 00-.192-.465L6.463.192a.653.653 0 00-.465-.191.652.652 0 00-.466.191z"/></symbol><symbol viewBox="0 0 14 12" id="arrows_right" xmlns="http://www.w3.org/2000/svg"><path d="M12.832 5.572L7.436.177a.608.608 0 00-.858 0 .605.605 0 000 .856L11.546 6 6.58 10.966a.605.605 0 10.857.857l5.397-5.395a.611.611 0 000-.856z"/><path d="M6.432 5.572L1.035.177a.608.608 0 00-.857 0 .605.605 0 000 .856L5.146 6 .178 10.966a.605.605 0 10.858.857l5.396-5.395a.611.611 0 000-.856z"/></symbol><symbol viewBox="0 0 25 25" id="clock" xmlns="http://www.w3.org/2000/svg"><path d="M12.5 4.076a.545.545 0 00.544-.544v-.271a.545.545 0 00-.544-.544.545.545 0 00-.543.544v.271c0 .3.244.544.543.544zm0 16.849a.545.545 0 00-.543.543v.272c0 .3.244.544.543.544a.545.545 0 00.544-.544v-.272a.545.545 0 00-.544-.543zm-8.967-8.968h-.272a.545.545 0 00-.543.543c0 .3.245.544.543.544h.272a.545.545 0 00.544-.544.545.545 0 00-.544-.543zm18.205 0h-.272a.545.545 0 00-.543.543c0 .3.244.544.543.544h.272a.545.545 0 00.543-.544.545.545 0 00-.543-.543zM6.358 5.598a.525.525 0 00-.76 0 .525.525 0 000 .761l.19.19a.537.537 0 00.38.163.536.536 0 00.38-.163.525.525 0 000-.76l-.19-.19zm-.571 12.853l-.19.19a.525.525 0 000 .761.537.537 0 00.38.163.537.537 0 00.381-.163l.19-.19a.525.525 0 000-.76.525.525 0 00-.76 0zM18.641 5.598l-.19.19a.525.525 0 000 .761.537.537 0 00.38.163.537.537 0 00.381-.163l.19-.19a.525.525 0 000-.76.525.525 0 00-.76 0zm-5.597 6.684V7.337a.545.545 0 00-.544-.544.545.545 0 00-.543.544V12.5c0 .136.054.271.163.38l5.95 5.951a.536.536 0 00.381.163.537.537 0 00.38-.163.526.526 0 000-.76l-5.787-5.789z"/><path d="M12.5 0C5.598 0 0 5.598 0 12.5S5.598 25 12.5 25 25 19.402 25 12.5 19.402 0 12.5 0zm0 23.913c-6.304 0-11.413-5.109-11.413-11.413S6.196 1.087 12.5 1.087 23.913 6.196 23.913 12.5 18.804 23.913 12.5 23.913z"/></symbol><symbol viewBox="0 0 15 15" id="close_button" xmlns="http://www.w3.org/2000/svg"><path d="M8.38 7.504l6.43-6.43a.625.625 0 10-.884-.883l-6.43 6.43L1.066.19a.625.625 0 00-.883.883l6.43 6.43-6.43 6.43a.625.625 0 00.883.883l6.43-6.43 6.43 6.43a.625.625 0 00.883-.883l-6.43-6.43z"/></symbol><symbol viewBox="0 0 22 16" id="email" xmlns="http://www.w3.org/2000/svg"><path d="M20 0H1.333C.597 0 0 .597 0 1.333v13.334C0 15.403.597 16 1.333 16H20c.736 0 1.333-.597 1.333-1.333V1.333C21.333.597 20.736 0 20 0zm-9.333 9.33l-8-3.348V3.09l8 3.33 8-3.33v2.892l-8 3.347z"/></symbol><symbol viewBox="0 0 26 25" id="facebook" xmlns="http://www.w3.org/2000/svg"><path d="M24.042 0H1.8A1.38 1.38 0 00.42 1.38v22.241A1.38 1.38 0 001.802 25h11.975v-9.668H10.53v-3.784h3.247V8.763c0-3.23 1.972-4.987 4.853-4.987 1.38 0 2.565.102 2.911.148V7.3h-1.986c-1.568 0-1.871.745-1.871 1.838v2.41h3.747l-.488 3.784h-3.26V25h6.36a1.38 1.38 0 001.38-1.38V1.379A1.38 1.38 0 0024.042 0z"/></symbol><symbol viewBox="0 0 26 25" id="in" xmlns="http://www.w3.org/2000/svg"><path d="M6.013 7.813H.421V25h5.59V7.812zm15.227.201c-.059-.019-.115-.039-.177-.056a3.618 3.618 0 00-.227-.044 5.01 5.01 0 00-1.003-.101c-3.26 0-5.327 2.37-6.008 3.285V7.812h-5.59V25h5.59v-9.375s4.225-5.884 6.008-1.563V25h5.589V13.402c0-2.597-1.78-4.761-4.181-5.388zM3.156 5.469a2.734 2.734 0 100-5.469 2.734 2.734 0 000 5.469z"/></symbol><symbol viewBox="0 0 25 25" id="instagram" xmlns="http://www.w3.org/2000/svg"><path d="M21.338 0H3.662A3.666 3.666 0 000 3.662v17.676A3.666 3.666 0 003.662 25h17.676A3.666 3.666 0 0025 21.338V3.662A3.666 3.666 0 0021.338 0zm-8.79 19.043a6.6 6.6 0 01-6.591-6.592 6.6 6.6 0 016.592-6.592 6.6 6.6 0 016.592 6.592 6.6 6.6 0 01-6.592 6.592zm7.325-11.719a2.2 2.2 0 01-2.197-2.197 2.2 2.2 0 012.197-2.197 2.2 2.2 0 012.197 2.197 2.2 2.2 0 01-2.197 2.197z"/><path d="M19.873 4.395a.733.733 0 10.001 1.465.733.733 0 00-.001-1.465zm-7.324 2.929a5.133 5.133 0 00-5.127 5.127c0 2.827 2.3 5.127 5.127 5.127s5.127-2.3 5.127-5.127-2.3-5.127-5.127-5.127z"/></symbol><symbol viewBox="0 0 40 40" id="ok" xmlns="http://www.w3.org/2000/svg"><path d="M5.883 34.117a19.898 19.898 0 0014.118 5.848 19.9 19.9 0 0014.118-5.848 19.897 19.897 0 004.278-6.345 19.845 19.845 0 001.57-7.773A19.896 19.896 0 0034.12 5.881a19.896 19.896 0 00-6.345-4.278A19.843 19.843 0 0020 .033 19.896 19.896 0 005.883 5.881a19.895 19.895 0 00-4.278 6.346 19.845 19.845 0 00-1.57 7.772 19.897 19.897 0 005.848 14.118zm14.118-31.17c9.417 0 17.051 7.635 17.051 17.052S29.418 37.05 20.002 37.05C10.583 37.05 2.95 29.416 2.95 20c0-9.419 7.634-17.053 17.05-17.053z"/><path d="M20 40c-2.699 0-5.318-.53-7.786-1.573a19.93 19.93 0 01-6.356-4.285 19.93 19.93 0 01-4.285-6.356A19.877 19.877 0 010 20c0-2.699.53-5.318 1.573-7.786a19.93 19.93 0 014.285-6.356 19.929 19.929 0 016.356-4.285A19.879 19.879 0 0120 0c2.699 0 5.318.53 7.786 1.573a19.931 19.931 0 016.356 4.285 19.93 19.93 0 014.285 6.356A19.877 19.877 0 0140 20c0 2.698-.53 5.318-1.573 7.786a19.93 19.93 0 01-4.285 6.356A19.934 19.934 0 0120 40zM20 .068c-2.69 0-5.3.527-7.76 1.568a19.862 19.862 0 00-6.334 4.27A19.862 19.862 0 00.068 20c0 2.69.527 5.3 1.568 7.76a19.862 19.862 0 004.27 6.334A19.864 19.864 0 0020 39.932c2.69 0 5.3-.528 7.76-1.568a19.863 19.863 0 006.334-4.27A19.864 19.864 0 0039.932 20c0-2.69-.528-5.3-1.568-7.76a19.86 19.86 0 00-4.27-6.334A19.864 19.864 0 0020 .068zm0 37.017a16.973 16.973 0 01-12.081-5.004A16.973 16.973 0 012.915 20c0-4.564 1.777-8.854 5.004-12.081A16.974 16.974 0 0120 2.915c4.564 0 8.854 1.777 12.081 5.004A16.973 16.973 0 0137.085 20c0 4.564-1.777 8.854-5.004 12.081A16.973 16.973 0 0120 37.085zm0-34.102c-4.546 0-8.819 1.77-12.033 4.984A16.906 16.906 0 002.983 20c0 4.546 1.77 8.819 4.984 12.033A16.906 16.906 0 0020 37.017c4.546 0 8.819-1.77 12.033-4.984A16.906 16.906 0 0037.017 20c0-4.546-1.77-8.819-4.984-12.033A16.905 16.905 0 0020 2.983z"/><path d="M15.578 27.269a1.457 1.457 0 002.061 0l12.477-12.477a1.457 1.457 0 00-2.06-2.061L16.608 24.177 11.94 19.51a1.457 1.457 0 10-2.06 2.06l5.698 5.699z"/><path d="M16.61 27.73c-.398 0-.772-.156-1.054-.438l-5.698-5.698a1.493 1.493 0 011.054-2.546c.399 0 .773.155 1.055.437l4.644 4.644 11.422-11.423a1.482 1.482 0 011.055-.436 1.486 1.486 0 011.491 1.491c0 .398-.155.773-.436 1.055L17.665 27.291a1.481 1.481 0 01-1.054.437zm-5.697-8.614a1.425 1.425 0 00-1.006 2.43l5.697 5.698c.27.27.627.417 1.007.417.38 0 .738-.148 1.006-.417l12.477-12.477c.27-.268.417-.626.417-1.006s-.148-.738-.417-1.006a1.414 1.414 0 00-1.006-.417c-.38 0-.738.148-1.007.417l-11.47 11.47-4.692-4.692a1.414 1.414 0 00-1.007-.417z"/></symbol><symbol viewBox="0 0 20 20" id="phone" xmlns="http://www.w3.org/2000/svg"><path d="M15.205 13.23c-.653-.645-1.469-.645-2.118 0-.495.492-.99.983-1.478 1.482-.133.137-.245.167-.408.075-.32-.175-.661-.316-.97-.508-1.435-.903-2.638-2.064-3.703-3.37-.529-.65-1-1.345-1.328-2.128-.066-.158-.054-.262.075-.39.495-.48.978-.97 1.465-1.462.678-.682.678-1.481-.004-2.168-.387-.391-.774-.774-1.161-1.165-.4-.4-.795-.803-1.199-1.199-.653-.637-1.469-.637-2.118.004-.5.491-.978.995-1.486 1.478-.47.445-.708.99-.758 1.627C-.065 6.542.19 7.52.547 8.473c.733 1.973 1.848 3.725 3.2 5.332a19.805 19.805 0 006.56 5.131c1.148.558 2.339.987 3.633 1.057.89.05 1.665-.174 2.285-.87.424-.474.903-.907 1.352-1.36.666-.675.67-1.49.009-2.156-.791-.795-1.586-1.586-2.38-2.377zm-.795-3.317l1.536-.262a6.864 6.864 0 00-1.919-3.704 6.827 6.827 0 00-3.912-1.952L9.9 5.54a5.297 5.297 0 013.03 1.511 5.296 5.296 0 011.481 2.863zm2.402-6.675A11.324 11.324 0 0010.319 0l-.216 1.544c2.14.3 4.079 1.27 5.61 2.797a9.811 9.811 0 012.751 5.306L20 9.385a11.406 11.406 0 00-3.188-6.147z"/></symbol><symbol viewBox="0 0 32 22" id="youtube" xmlns="http://www.w3.org/2000/svg"><path d="M30.774 3.442a3.936 3.936 0 00-2.77-2.77C25.547 0 15.71 0 15.71 0S5.875 0 3.416.647C2.096 1.01 1.01 2.097.647 3.442 0 5.902 0 11 0 11s0 5.125.647 7.558a3.937 3.937 0 002.77 2.769C5.9 22 15.71 22 15.71 22s9.835 0 12.294-.647a3.937 3.937 0 002.77-2.77c.646-2.458.646-7.557.646-7.557s.026-5.125-.647-7.584zM12.579 15.71V6.29L20.758 11l-8.18 4.71z"/></symbol></svg>